<svg width="170" height="61" viewBox="0 0 170 61" fill="none" xmlns="http://www.w3.org/2000/svg">
<g clip-path="url(#clip0_17_219)">
<mask id="mask0_17_219" style="mask-type:luminance" maskUnits="userSpaceOnUse" x="0" y="16" width="29" height="30">
<path d="M21.6295 16.6963H7.20982C3.22795 16.6963 0 19.9242 0 23.9061V38.3258C0 42.3076 3.22795 45.5356 7.20982 45.5356H21.6295C25.6113 45.5356 28.8393 42.3076 28.8393 38.3258V23.9061C28.8393 19.9242 25.6113 16.6963 21.6295 16.6963Z" fill="white"/>
</mask>
<g mask="url(#mask0_17_219)">
<path fill-rule="evenodd" clip-rule="evenodd" d="M7.20982 16.6963C3.22794 16.6963 0 19.9242 0 23.9061V38.3258C0 42.3076 3.22794 45.5356 7.20982 45.5356H21.6295C25.6114 45.5356 28.8393 42.3076 28.8393 38.3258V23.9061C28.8393 19.9242 25.6114 16.6963 21.6295 16.6963H7.20982ZM7.20982 18.0481C3.97455 18.0481 1.35184 20.6708 1.35184 23.9061V38.3258C1.35184 41.5611 3.97455 44.1837 7.20982 44.1837H21.6295C24.8648 44.1837 27.4874 41.5611 27.4874 38.3258V23.9061C27.4874 20.6708 24.8648 18.0481 21.6295 18.0481H7.20982Z" fill="black"/>
<mask id="mask1_17_219" style="mask-type:luminance" maskUnits="userSpaceOnUse" x="0" y="16" width="29" height="30">
<path fill-rule="evenodd" clip-rule="evenodd" d="M7.20982 16.6963C3.22794 16.6963 0 19.9242 0 23.9061V38.3258C0 42.3076 3.22794 45.5356 7.20982 45.5356H21.6295C25.6114 45.5356 28.8393 42.3076 28.8393 38.3258V23.9061C28.8393 19.9242 25.6114 16.6963 21.6295 16.6963H7.20982ZM7.20982 18.0481C3.97455 18.0481 1.35184 20.6708 1.35184 23.9061V38.3258C1.35184 41.5611 3.97455 44.1837 7.20982 44.1837H21.6295C24.8648 44.1837 27.4874 41.5611 27.4874 38.3258V23.9061C27.4874 20.6708 24.8648 18.0481 21.6295 18.0481H7.20982Z" fill="white"/>
</mask>
<g mask="url(#mask1_17_219)">
<path d="M1.35188 23.9064C1.35188 20.6711 3.97458 18.0484 7.20986 18.0484V15.3447C2.48138 15.3447 -1.35181 19.1779 -1.35181 23.9064H1.35188ZM1.35188 38.326V23.9064H-1.35181V38.326H1.35188ZM7.20986 44.184C3.97458 44.184 1.35188 41.5613 1.35188 38.326H-1.35181C-1.35181 43.0545 2.48138 46.8877 7.20986 46.8877V44.184ZM21.6295 44.184H7.20986V46.8877H21.6295V44.184ZM27.4875 38.326C27.4875 41.5613 24.8648 44.184 21.6295 44.184V46.8877C26.358 46.8877 30.1912 43.0545 30.1912 38.326H27.4875ZM27.4875 23.9064V38.326H30.1912V23.9064H27.4875ZM21.6295 18.0484C24.8648 18.0484 27.4875 20.6711 27.4875 23.9064H30.1912C30.1912 19.1779 26.358 15.3447 21.6295 15.3447V18.0484ZM7.20986 18.0484H21.6295V15.3447H7.20986V18.0484ZM2.70372 23.9064C2.70372 21.4177 4.72119 19.4003 7.20986 19.4003V16.6966C3.22798 16.6966 3.48389e-05 19.9245 3.48389e-05 23.9064H2.70372ZM2.70372 38.326V23.9064H3.48389e-05V38.326H2.70372ZM7.20986 42.8322C4.72119 42.8322 2.70372 40.8147 2.70372 38.326H3.48389e-05C3.48389e-05 42.3079 3.22798 45.5359 7.20986 45.5359V42.8322ZM21.6295 42.8322H7.20986V45.5359H21.6295V42.8322ZM26.1356 38.326C26.1356 40.8147 24.1181 42.8322 21.6295 42.8322V45.5359C25.6114 45.5359 28.8393 42.3079 28.8393 38.326H26.1356ZM26.1356 23.9064V38.326H28.8393V23.9064H26.1356ZM21.6295 19.4003C24.1181 19.4003 26.1356 21.4177 26.1356 23.9064H28.8393C28.8393 19.9245 25.6114 16.6966 21.6295 16.6966V19.4003ZM7.20986 19.4003H21.6295V16.6966H7.20986V19.4003Z" fill="#F3FBE4"/>
</g>
<path d="M20.7282 19.3999H8.11098C5.12457 19.3999 2.70361 21.8209 2.70361 24.8073V37.4245C2.70361 40.4109 5.12457 42.8318 8.11098 42.8318H20.7282C23.7146 42.8318 26.1355 40.4109 26.1355 37.4245V24.8073C26.1355 21.8209 23.7146 19.3999 20.7282 19.3999Z" fill="url(#paint0_linear_17_219)"/>
<mask id="mask2_17_219" style="mask-type:alpha" maskUnits="userSpaceOnUse" x="2" y="19" width="25" height="24">
<path d="M20.7282 19.3999H8.11098C5.12457 19.3999 2.70361 21.8209 2.70361 24.8073V37.4245C2.70361 40.4109 5.12457 42.8318 8.11098 42.8318H20.7282C23.7146 42.8318 26.1355 40.4109 26.1355 37.4245V24.8073C26.1355 21.8209 23.7146 19.3999 20.7282 19.3999Z" fill="url(#paint1_linear_17_219)"/>
</mask>
<g mask="url(#mask2_17_219)">
<g filter="url(#filter0_if_17_219)">
<path d="M0 16.6963L8.56166 25.258H15.3209L31.0924 44.1837L23.4319 45.9862H15.7715L0 45.5356V16.6963Z" fill="url(#paint2_linear_17_219)"/>
</g>
<path d="M16.1485 15.6396L-10.0676 46.8827" stroke="white" stroke-opacity="0.2" stroke-width="0.450614"/>
<path d="M39.3987 46.8827L13.1826 15.6396" stroke="white" stroke-opacity="0.2" stroke-width="0.450614"/>
</g>
<path d="M12.9293 22.5609C13.5918 21.733 15.2479 21.733 15.9103 22.5609L23.3628 31.875C24.0252 32.703 23.1971 33.7378 21.8722 33.7378H6.9673C5.64241 33.7378 4.81436 32.703 5.4768 31.875L12.9293 22.5609Z" fill="white"/>
<g filter="url(#filter1_d_17_219)">
<path d="M13.1423 30.0295C13.7102 29.2936 15.1297 29.2936 15.6975 30.0295L22.0854 38.3087C22.6532 39.0447 21.9434 39.9645 20.8078 39.9645H8.0321C6.89648 39.9645 6.18672 39.0447 6.75453 38.3087L13.1423 30.0295Z" fill="white"/>
</g>
</g>
<path d="M44.2677 27.3871C44.2002 26.7066 43.9106 26.1779 43.3988 25.801C42.8869 25.4242 42.1923 25.2358 41.3149 25.2358C40.7187 25.2358 40.2153 25.3201 39.8047 25.4889C39.3941 25.652 39.0792 25.8798 38.8598 26.1722C38.6461 26.4647 38.5392 26.7966 38.5392 27.1678C38.528 27.4771 38.5926 27.7471 38.7333 27.9777C38.8795 28.2083 39.0792 28.408 39.3323 28.5767C39.5854 28.7398 39.8778 28.8832 40.2097 29.007C40.5415 29.1251 40.8959 29.2263 41.2727 29.3107L42.8251 29.6819C43.5787 29.8507 44.2705 30.0756 44.9005 30.3569C45.5304 30.6381 46.076 30.984 46.5372 31.3946C46.9984 31.8052 47.3556 32.2889 47.6087 32.8457C47.8674 33.4025 47.9996 34.0409 48.0052 34.7608C47.9996 35.8182 47.7296 36.735 47.1953 37.5112C46.6666 38.2817 45.9016 38.8807 44.9005 39.3082C43.905 39.73 42.7041 39.941 41.298 39.941C39.9031 39.941 38.6883 39.7272 37.6534 39.2998C36.6241 38.8723 35.8198 38.2396 35.2405 37.4015C34.6668 36.5578 34.3659 35.5145 34.3377 34.2715H37.8727C37.9121 34.8508 38.078 35.3345 38.3705 35.7226C38.6686 36.1051 39.0651 36.3947 39.5601 36.5916C40.0606 36.7828 40.6259 36.8784 41.2558 36.8784C41.8745 36.8784 42.4117 36.7884 42.8672 36.6085C43.3284 36.4285 43.6856 36.1782 43.9387 35.8576C44.1918 35.537 44.3184 35.1686 44.3184 34.7524C44.3184 34.3643 44.2031 34.0381 43.9725 33.7737C43.7475 33.5094 43.4156 33.2844 42.9769 33.0988C42.5438 32.9132 42.0123 32.7444 41.3824 32.5926L39.501 32.1201C38.0443 31.7658 36.8941 31.2118 36.0504 30.4581C35.2067 29.7044 34.7877 28.6892 34.7933 27.4124C34.7877 26.3663 35.0661 25.4523 35.6285 24.6705C36.1966 23.8887 36.9756 23.2785 37.9655 22.8398C38.9554 22.401 40.0803 22.1817 41.3402 22.1817C42.6226 22.1817 43.7418 22.401 44.698 22.8398C45.6598 23.2785 46.4078 23.8887 46.9422 24.6705C47.4765 25.4523 47.7521 26.3579 47.769 27.3871H44.2677ZM50.3949 39.6963V26.7375H53.9889V39.6963H50.3949ZM52.2003 25.067C51.666 25.067 51.2076 24.8899 50.8252 24.5355C50.4483 24.1756 50.2599 23.7453 50.2599 23.2447C50.2599 22.7498 50.4483 22.3251 50.8252 21.9708C51.2076 21.6108 51.666 21.4308 52.2003 21.4308C52.7347 21.4308 53.1903 21.6108 53.5671 21.9708C53.9496 22.3251 54.1408 22.7498 54.1408 23.2447C54.1408 23.7453 53.9496 24.1756 53.5671 24.5355C53.1903 24.8899 52.7347 25.067 52.2003 25.067ZM56.868 39.6963V26.7375H60.2933V29.0239H60.4451C60.7151 28.2646 61.1651 27.6655 61.795 27.2268C62.4249 26.7881 63.1786 26.5688 64.056 26.5688C64.9447 26.5688 65.7012 26.7909 66.3255 27.2353C66.9498 27.674 67.366 28.2702 67.5741 29.0239H67.7091C67.9735 28.2814 68.4516 27.688 69.1434 27.2437C69.8408 26.7938 70.6648 26.5688 71.6153 26.5688C72.8246 26.5688 73.806 26.9541 74.5597 27.7246C75.319 28.4895 75.6987 29.5751 75.6987 30.9812V39.6963H72.1131V31.6899C72.1131 30.9699 71.9219 30.43 71.5394 30.07C71.1569 29.71 70.6788 29.5301 70.1051 29.5301C69.4527 29.5301 68.9437 29.7382 68.5781 30.1544C68.2125 30.565 68.0297 31.1077 68.0297 31.7827V39.6963H64.5454V31.6139C64.5454 30.9784 64.3626 30.4722 63.997 30.0953C63.637 29.7185 63.1617 29.5301 62.5712 29.5301C62.1718 29.5301 61.8119 29.6313 61.4913 29.8338C61.1763 30.0306 60.926 30.309 60.7404 30.669C60.5548 31.0234 60.462 31.4396 60.462 31.9176V39.6963H56.868ZM80.5203 22.4179L84.6964 35.5454H84.8567L89.0413 22.4179H93.091L87.1346 39.6963H82.427L76.4622 22.4179H80.5203ZM95.1031 39.6963V26.7375H98.6971V39.6963H95.1031ZM96.9086 25.067C96.3742 25.067 95.9158 24.8899 95.5334 24.5355C95.1565 24.1756 94.9681 23.7453 94.9681 23.2447C94.9681 22.7498 95.1565 22.3251 95.5334 21.9708C95.9158 21.6108 96.3742 21.4308 96.9086 21.4308C97.4429 21.4308 97.8985 21.6108 98.2753 21.9708C98.6578 22.3251 98.849 22.7498 98.849 23.2447C98.849 23.7453 98.6578 24.1756 98.2753 24.5355C97.8985 24.8899 97.4429 25.067 96.9086 25.067ZM101.509 39.6963V37.5534L107.853 29.6988V29.606H101.728V26.7375H112.181V29.0745L106.225 36.735V36.8278H112.4V39.6963H101.509ZM115.216 39.6963V22.4179H118.869V36.6844H126.277V39.6963H115.216ZM132.324 39.941C131.497 39.941 130.76 39.7975 130.113 39.5107C129.467 39.2182 128.955 38.7879 128.578 38.2199C128.207 37.6462 128.021 36.9319 128.021 36.0769C128.021 35.357 128.153 34.7524 128.418 34.2631C128.682 33.7737 129.042 33.38 129.497 33.0819C129.953 32.7838 130.47 32.5588 131.05 32.407C131.635 32.2551 132.248 32.1482 132.889 32.0864C133.643 32.0076 134.25 31.9345 134.711 31.867C135.173 31.7939 135.507 31.687 135.715 31.5464C135.923 31.4058 136.027 31.1977 136.027 30.9221V30.8715C136.027 30.3372 135.859 29.9238 135.521 29.6313C135.189 29.3388 134.717 29.1926 134.104 29.1926C133.457 29.1926 132.942 29.336 132.56 29.6229C132.178 29.9041 131.924 30.2584 131.801 30.6859L128.477 30.4159C128.645 29.6285 128.977 28.9479 129.472 28.3742C129.967 27.7949 130.605 27.3506 131.387 27.0412C132.175 26.7263 133.086 26.5688 134.121 26.5688C134.841 26.5688 135.53 26.6531 136.188 26.8219C136.851 26.9906 137.439 27.2521 137.951 27.6065C138.468 27.9608 138.876 28.4164 139.174 28.9732C139.472 29.5244 139.621 30.1853 139.621 30.9559V39.6963H136.213V37.8993H136.112C135.904 38.3042 135.625 38.6614 135.277 38.9707C134.928 39.2745 134.509 39.5135 134.02 39.6879C133.53 39.8566 132.965 39.941 132.324 39.941ZM133.353 37.4606C133.882 37.4606 134.349 37.3565 134.754 37.1484C135.158 36.9347 135.476 36.6478 135.707 36.2879C135.937 35.9279 136.053 35.5201 136.053 35.0645V33.6894C135.94 33.7625 135.786 33.83 135.589 33.8918C135.398 33.9481 135.181 34.0015 134.939 34.0521C134.697 34.0971 134.455 34.1393 134.214 34.1787C133.972 34.2124 133.752 34.2434 133.556 34.2715C133.134 34.3334 132.765 34.4318 132.45 34.5668C132.135 34.7018 131.891 34.8846 131.716 35.1152C131.542 35.3401 131.455 35.6214 131.455 35.9588C131.455 36.4482 131.632 36.8222 131.986 37.0809C132.346 37.334 132.802 37.4606 133.353 37.4606ZM142.477 39.6963V22.4179H146.071V28.9142H146.181C146.339 28.5655 146.566 28.2111 146.864 27.8512C147.168 27.4856 147.562 27.1818 148.046 26.94C148.535 26.6925 149.142 26.5688 149.868 26.5688C150.813 26.5688 151.685 26.8163 152.483 27.3112C153.282 27.8005 153.92 28.5402 154.398 29.5301C154.876 30.5143 155.116 31.7489 155.116 33.2338C155.116 34.6793 154.882 35.8998 154.415 36.8953C153.954 37.8852 153.324 38.6361 152.525 39.1479C151.732 39.6541 150.844 39.9072 149.859 39.9072C149.162 39.9072 148.569 39.7919 148.079 39.5613C147.596 39.3307 147.199 39.041 146.89 38.6923C146.58 38.338 146.344 37.9808 146.181 37.6209H146.021V39.6963H142.477ZM145.995 33.2169C145.995 33.9875 146.102 34.6596 146.316 35.2333C146.53 35.807 146.839 36.2541 147.244 36.5747C147.649 36.8897 148.141 37.0472 148.72 37.0472C149.305 37.0472 149.8 36.8869 150.205 36.5663C150.61 36.2401 150.917 35.7901 151.125 35.2164C151.339 34.6371 151.446 33.9706 151.446 33.2169C151.446 32.4688 151.341 31.8108 151.133 31.2427C150.925 30.6746 150.619 30.2303 150.214 29.9097C149.809 29.5891 149.311 29.4288 148.72 29.4288C148.136 29.4288 147.641 29.5835 147.236 29.8928C146.836 30.2022 146.53 30.6409 146.316 31.209C146.102 31.777 145.995 32.4463 145.995 33.2169ZM168.296 30.4328L165.005 30.6353C164.949 30.354 164.828 30.1009 164.643 29.876C164.457 29.6454 164.212 29.4626 163.909 29.3276C163.611 29.187 163.253 29.1167 162.837 29.1167C162.28 29.1167 161.811 29.2348 161.428 29.471C161.046 29.7016 160.855 30.011 160.855 30.399C160.855 30.7084 160.978 30.9699 161.226 31.1837C161.473 31.3974 161.898 31.5689 162.5 31.6983L164.845 32.1707C166.105 32.4295 167.044 32.8457 167.663 33.4194C168.282 33.9931 168.591 34.7468 168.591 35.6804C168.591 36.5297 168.341 37.275 167.84 37.9161C167.345 38.5573 166.665 39.0579 165.798 39.4179C164.938 39.7722 163.945 39.9494 162.82 39.9494C161.105 39.9494 159.738 39.5922 158.72 38.8779C157.708 38.158 157.114 37.1793 156.94 35.942L160.475 35.7563C160.582 36.2794 160.841 36.6788 161.251 36.9544C161.662 37.2243 162.188 37.3593 162.829 37.3593C163.459 37.3593 163.965 37.2384 164.347 36.9965C164.735 36.7491 164.932 36.4313 164.938 36.0432C164.932 35.717 164.795 35.4498 164.525 35.2417C164.255 35.028 163.838 34.8649 163.276 34.7524L161.032 34.3052C159.766 34.0521 158.824 33.6134 158.205 32.9891C157.592 32.3648 157.286 31.5689 157.286 30.6015C157.286 29.7691 157.511 29.052 157.961 28.4502C158.416 27.8483 159.055 27.3843 159.876 27.0581C160.703 26.7319 161.67 26.5688 162.778 26.5688C164.415 26.5688 165.703 26.9147 166.642 27.6065C167.587 28.2983 168.138 29.2404 168.296 30.4328Z" fill="white"/>
</g>
<defs>
<filter id="filter0_if_17_219" x="-3.60491" y="13.0914" width="38.3021" height="36.4999" filterUnits="userSpaceOnUse" color-interpolation-filters="sRGB">
<feFlood flood-opacity="0" result="BackgroundImageFix"/>
<feBlend mode="normal" in="SourceGraphic" in2="BackgroundImageFix" result="shape"/>
<feColorMatrix in="SourceAlpha" type="matrix" values="0 0 0 0 0 0 0 0 0 0 0 0 0 0 0 0 0 0 127 0" result="hardAlpha"/>
<feOffset dy="3.60491"/>
<feGaussianBlur stdDeviation="1.80246"/>
<feComposite in2="hardAlpha" operator="arithmetic" k2="-1" k3="1"/>
<feColorMatrix type="matrix" values="0 0 0 0 0.0705882 0 0 0 0 0.537255 0 0 0 0 0.541176 0 0 0 0.3 0"/>
<feBlend mode="normal" in2="shape" result="effect1_innerShadow_17_219"/>
<feGaussianBlur stdDeviation="1.80246" result="effect2_foregroundBlur_17_219"/>
</filter>
<filter id="filter1_d_17_219" x="4.75223" y="25.8726" width="19.3354" height="14.0917" filterUnits="userSpaceOnUse" color-interpolation-filters="sRGB">
<feFlood flood-opacity="0" result="BackgroundImageFix"/>
<feColorMatrix in="SourceAlpha" type="matrix" values="0 0 0 0 0 0 0 0 0 0 0 0 0 0 0 0 0 0 127 0" result="hardAlpha"/>
<feOffset dy="-1.80246"/>
<feGaussianBlur stdDeviation="0.901228"/>
<feComposite in2="hardAlpha" operator="out"/>
<feColorMatrix type="matrix" values="0 0 0 0 0.0746814 0 0 0 0 0.416826 0 0 0 0 0.405325 0 0 0 0.7 0"/>
<feBlend mode="normal" in2="BackgroundImageFix" result="effect1_dropShadow_17_219"/>
<feBlend mode="normal" in="SourceGraphic" in2="effect1_dropShadow_17_219" result="shape"/>
</filter>
<linearGradient id="paint0_linear_17_219" x1="2.33749" y1="12.0774" x2="14.4196" y2="42.8318" gradientUnits="userSpaceOnUse">
<stop stop-color="#ACE348"/>
<stop offset="1" stop-color="#25ACA0"/>
</linearGradient>
<linearGradient id="paint1_linear_17_219" x1="2.33749" y1="12.0774" x2="14.4196" y2="42.8318" gradientUnits="userSpaceOnUse">
<stop stop-color="#ACE348"/>
<stop offset="1" stop-color="#25ACA0"/>
</linearGradient>
<linearGradient id="paint2_linear_17_219" x1="16.2221" y1="35.1715" x2="-1.35962e-06" y2="45.5356" gradientUnits="userSpaceOnUse">
<stop stop-color="#12898A"/>
<stop offset="1" stop-color="#ACE348" stop-opacity="0"/>
</linearGradient>
<clipPath id="clip0_17_219">
<rect width="170" height="60.7143" fill="white"/>
</clipPath>
</defs>
</svg>
